HIERARCHY
ROOT Hips
{
 OFFSET 0.000000 0.000000 0.000000
 CHANNELS 6 Xposition Yposition Zposition Yrotation Xrotation Zrotation
 JOINT Chest
 {
  OFFSET 0.000000 9.585900 0.002600
  CHANNELS 3 Yrotation Xrotation Zrotation
  JOINT Chest2
  {
   OFFSET 0.000000 9.601200 -0.005300
   CHANNELS 3 Yrotation Xrotation Zrotation
   JOINT Chest3
   {
    OFFSET 0.000000 9.561800 0.000000
    CHANNELS 3 Yrotation Xrotation Zrotation
    JOINT Chest4
    {
     OFFSET 0.000000 9.552100 0.000000
     CHANNELS 3 Yrotation Xrotation Zrotation
     JOINT Neck
     {
      OFFSET 0.000000 14.453000 0.000000
      CHANNELS 3 Yrotation Xrotation Zrotation
      JOINT Head
      {
       OFFSET 0.000000 8.936500 -0.011300
       CHANNELS 3 Yrotation Xrotation Zrotation
       End Site
       {
        OFFSET 0.000000 17.073600 -0.006000
       }
      }
     }
     JOINT RightCollar
     {
      OFFSET -2.921100 9.558500 0.000000
      CHANNELS 3 Yrotation Xrotation Zrotation
      JOINT RightShoulder
      {
       OFFSET -13.519700 0.000000 0.000000
       CHANNELS 3 Yrotation Xrotation Zrotation
       JOINT RightElbow
       {
        OFFSET 0.000000 -29.696600 0.000000
        CHANNELS 3 Yrotation Xrotation Zrotation
        JOINT RightWrist
        {
         OFFSET 0.000000 -24.004700 0.000000
         CHANNELS 3 Yrotation Xrotation Zrotation
         End Site
         {
          OFFSET 0.000000 -17.728500 0.000000
         }
        }
       }
      }
     }
     JOINT LeftCollar
     {
      OFFSET 2.921100 9.558500 0.000000
      CHANNELS 3 Yrotation Xrotation Zrotation
      JOINT LeftShoulder
      {
       OFFSET 13.519700 0.000000 0.000000
       CHANNELS 3 Yrotation Xrotation Zrotation
       JOINT LeftElbow
       {
        OFFSET 0.000000 -29.696600 0.000000
        CHANNELS 3 Yrotation Xrotation Zrotation
        JOINT LeftWrist
        {
         OFFSET 0.000000 -24.004700 0.000000
         CHANNELS 3 Yrotation Xrotation Zrotation
         End Site
         {
          OFFSET 0.000000 -17.728500 0.000000
         }
        }
       }
      }
     }
    }
   }
  }
 }
 JOINT RightHip
 {
  OFFSET -7.771700 -0.012900 -0.001300
  CHANNELS 3 Yrotation Xrotation Zrotation
  JOINT RightKnee
  {
   OFFSET 0.000000 -40.869800 0.001200
   CHANNELS 3 Yrotation Xrotation Zrotation
   JOINT RightAnkle
   {
    OFFSET 0.000000 -39.717900 0.002100
    CHANNELS 3 Yrotation Xrotation Zrotation
    JOINT RightToe
    {
     OFFSET 0.000000 -4.965400 11.033500
     CHANNELS 3 Yrotation Xrotation Zrotation
     End Site
     {
      OFFSET 0.000000 -1.423100 5.872300
     }
    }
   }
  }
 }
 JOINT LeftHip
 {
  OFFSET 7.771700 -0.012900 -0.001300
  CHANNELS 3 Yrotation Xrotation Zrotation
  JOINT LeftKnee
  {
   OFFSET 0.000000 -40.869800 0.001200
   CHANNELS 3 Yrotation Xrotation Zrotation
   JOINT LeftAnkle
   {
    OFFSET 0.000000 -39.717900 0.002100
    CHANNELS 3 Yrotation Xrotation Zrotation
    JOINT LeftToe
    {
     OFFSET 0.000000 -4.965400 11.033500
     CHANNELS 3 Yrotation Xrotation Zrotation
     End Site
     {
      OFFSET 0.000000 -1.423100 5.872300
     }
    }
   }
  }
 }
}
MOTION
Frames: 15
Frame Time: 0.008333
0.000000 85.388000 0.000000 0.000000 -5.767877 0.000000 0.000000 11.653817 0.000000 0.000000 -5.885947 0.000000 0.000000 -0.000000 0.000000 0.000000 -0.000000 0.000000 0.000000 12.528835 0.000000 0.000000 0.711642 0.000000 0.000000 -0.000000 0.000000 0.000000 0.000000 -90.000000 0.000000 -2.309062 0.000000 0.000000 2.309062 0.000000 0.000000 -0.000000 0.000000 0.000000 -0.000000 90.000000 0.000000 -2.309062 0.000000 0.000000 2.309062 0.000000 0.000000 8.520406 0.000000 0.000000 1.905762 0.000000 -0.000000 -4.658285 0.000000 0.000000 -0.000000 0.000000 0.000000 8.520406 0.000000 0.000000 1.905762 0.000000 -0.000000 -4.658285 0.000000 0.000000 -0.000000 0.000000
-31.874474 55.938089 37.777133 -168.236501 -29.696117 -9.157197 -4.781971 14.420419 5.049981 -2.608925 8.395816 1.864451 -3.226140 10.501625 2.275803 -2.610927 8.384144 1.860457 0.044411 20.929839 -1.142333 0.303374 -3.496590 -1.234701 2.217985 -1.848811 -4.482064 2.224901 -20.569082 1.844121 58.278569 -38.113449 -42.818664 7.069736 3.926680 -23.949264 -12.525978 2.164735 -4.130682 -5.052529 -18.450168 2.020835 -56.004551 -41.315180 57.210855 1.278328 -11.593670 3.895554 -24.781611 -29.990216 1.392205 107.696732 89.043752 105.634304 1.312086 -26.676776 -2.987957 -0.048188 0.754773 -0.030569 -15.429541 -46.390885 2.382213 174.078710 73.481086 172.491141 1.094714 -23.327193 -0.723855 -0.675542 -2.672115 -0.283722
-31.876699 55.936999 37.775688 -168.237663 -29.686681 -9.150967 -4.779188 14.440229 5.058302 -2.609826 8.386444 1.862514 -3.216264 10.548862 2.299585 -2.622173 8.331287 1.841211 0.079825 20.975029 -1.130194 0.324330 -3.500360 -1.248962 2.203235 -1.817305 -4.475008 2.202036 -20.536093 1.855455 58.352646 -38.221926 -42.927138 7.104329 3.952800 -23.912371 -12.531016 2.252612 -4.117628 -5.085306 -18.479047 2.065614 -56.027102 -41.401858 57.269690 1.261472 -11.598779 3.900735 -24.783886 -30.002687 1.385259 107.914275 89.043016 105.854181 1.321522 -26.679080 -2.991640 -0.051168 0.753910 -0.027475 -15.409141 -46.399605 2.375657 174.084850 73.479899 172.495804 1.087191 -23.336677 -0.711545 -0.676908 -2.668928 -0.283993
-31.878344 55.934825 37.774956 -168.247832 -29.665826 -9.143811 -4.771161 14.448892 5.071127 -2.606495 8.396308 1.870402 -3.210542 10.558200 2.308801 -2.620099 8.344329 1.849621 0.097581 20.969745 -1.142824 0.345444 -3.502139 -1.265539 2.161420 -1.760501 -4.467355 2.191738 -20.573061 1.843220 58.438145 -38.331228 -43.039013 7.138103 3.978209 -23.874480 -12.541612 2.267550 -4.123492 -5.105596 -18.490585 2.110008 -56.072027 -41.484279 57.327734 1.258757 -11.583355 3.910980 -24.783556 -30.027377 1.389762 108.227511 89.043777 106.170822 1.328714 -26.679996 -2.994193 -0.049344 0.754045 -0.026951 -15.385847 -46.419248 2.374894 174.079323 73.477500 172.494748 1.073904 -23.352406 -0.701740 -0.674952 -2.659470 -0.280874
-31.880051 55.933609 37.771283 -168.249414 -29.656538 -9.144875 -4.763364 14.466550 5.086629 -2.603919 8.405627 1.878587 -3.209949 10.572844 2.319390 -2.614609 8.350843 1.856958 0.111751 20.971570 -1.155089 0.366856 -3.503175 -1.283249 2.121629 -1.699279 -4.458948 2.171953 -20.605136 1.832846 58.536565 -38.442489 -43.158653 7.095657 3.974061 -23.821374 -12.550486 2.289941 -4.134371 -5.120802 -18.541159 2.136407 -56.115592 -41.531337 57.363810 1.254250 -11.571012 3.917357 -24.794895 -30.035133 1.392862 108.499566 89.051799 106.440864 1.340936 -26.682539 -2.994598 -0.048431 0.753103 -0.029970 -15.381354 -46.428696 2.378768 174.067449 73.468180 172.481044 1.067822 -23.354617 -0.693822 -0.676279 -2.668272 -0.284238
-31.882896 55.933001 37.765044 -168.255437 -29.658929 -9.140553 -4.748280 14.528999 5.114737 -2.606147 8.382252 1.873380 -3.205914 10.588361 2.328251 -2.612336 8.356068 1.864655 0.108151 20.940925 -1.175955 0.401809 -3.472346 -1.301133 2.093437 -1.665023 -4.458238 2.152454 -20.632963 1.822017 58.618807 -38.545452 -43.261276 7.092687 3.988773 -23.766984 -12.554354 2.313507 -4.149042 -5.135222 -18.594661 2.165065 -56.209695 -41.607963 57.421116 1.254840 -11.513735 3.938168 -24.804566 -30.033759 1.385166 108.829285 89.049082 106.765783 1.359523 -26.685684 -3.002522 -0.055794 0.750143 -0.028774 -15.363721 -46.421341 2.376127 174.096890 73.462930 172.503470 1.066469 -23.371037 -0.679968 -0.676547 -2.669011 -0.289979
-31.887679 55.930397 37.760453 -168.253124 -29.643065 -9.126792 -4.750803 14.536828 5.112031 -2.594072 8.443452 1.903355 -3.209467 10.556226 2.321249 -2.619191 8.367300 1.873694 0.132627 20.953023 -1.190840 0.404597 -3.492561 -1.319999 2.072313 -1.638389 -4.459659 2.116593 -20.631722 1.820126 58.741997 -38.621184 -43.386861 7.076722 3.990232 -23.734556 -12.556737 2.285986 -4.162713 -5.126243 -18.573992 2.204036 -56.273703 -41.689155 57.477766 1.256730 -11.499968 3.938900 -24.809257 -30.055670 1.375114 109.606951 89.058203 107.538523 1.367728 -26.696445 -2.997592 -0.051165 0.752020 -0.027926 -15.323372 -46.434116 2.340908 174.097033 73.463060 172.518340 1.051278 -23.396049 -0.671681 -0.663336 -2.652664 -0.285189
-31.891567 55.926569 37.756714 -168.255925 -29.614507 -9.114498 -4.753074 14.515748 5.106955 -2.582338 8.478831 1.920159 -3.202995 10.568016 2.331109 -2.616858 8.377260 1.881396 0.143501 20.962088 -1.204903 0.392299 -3.527583 -1.332162 2.039496 -1.610886 -4.458294 2.069080 -20.603910 1.828922 58.898858 -38.754800 -43.573669 7.117522 4.038481 -23.680192 -12.565530 2.335992 -4.176996 -5.107253 -18.572975 2.267181 -56.396312 -41.818367 57.583705 1.257312 -11.480824 3.941087 -24.817122 -30.089847 1.374797 110.474033 89.066527 108.402326 1.383222 -26.705541 -2.997532 -0.050369 0.753195 -0.026743 -15.302035 -46.464256 2.319839 174.096522 73.457613 172.526377 1.050968 -23.408888 -0.667423 -0.659111 -2.647748 -0.284814
-31.895213 55.924221 37.749333 -168.252679 -29.604297 -9.110421 -4.749199 14.538078 5.117161 -2.572841 8.491034 1.929237 -3.194620 10.580264 2.341111 -2.584540 8.454237 1.916301 0.103749 20.880777 -1.245248 0.370077 -3.572413 -1.334173 1.976997 -1.652493 -4.480791 2.038614 -20.601382 1.831702 59.017298 -38.872872 -43.736060 7.158841 4.084113 -23.625075 -12.609664 2.313297 -4.197602 -5.097852 -18.604087 2.308256 -56.525477 -41.950100 57.706659 1.246834 -11.429044 3.931964 -24.830872 -30.099843 1.373307 111.035927 89.065001 108.955492 1.387552 -26.716109 -2.997394 -0.049437 0.752959 -0.025493 -15.278657 -46.474429 2.295538 174.091723 73.447671 172.531771 1.054050 -23.416576 -0.661391 -0.659494 -2.653724 -0.288112
-31.898352 55.921448 37.741818 -168.260308 -29.591283 -9.103090 -4.716490 14.595008 5.150161 -2.577039 8.463970 1.923910 -3.201296 10.561702 2.339587 -2.561239 8.495716 1.930858 0.090699 20.862846 -1.256824 0.368708 -3.585750 -1.350734 1.931383 -1.627580 -4.474904 2.012418 -20.602433 1.836484 59.128765 -38.953215 -43.878589 7.166127 4.097043 -23.574275 -12.641684 2.286199 -4.202344 -5.085074 -18.575137 2.325188 -56.615548 -42.036984 57.811854 1.250747 -11.406123 3.921530 -24.835735 -30.114443 1.376774 111.598292 89.060635 109.510863 1.388571 -26.725467 -2.997188 -0.048551 0.752517 -0.024977 -15.257037 -46.486217 2.284803 174.114451 73.437811 172.554879 1.061885 -23.429983 -0.650976 -0.663656 -2.654771 -0.289948
-31.901841 55.918009 37.734853 -168.262005 -29.570234 -9.094592 -4.702664 14.611020 5.160588 -2.569193 8.473652 1.931461 -3.209064 10.540892 2.339603 -2.556448 8.501482 1.933399 0.083033 20.853094 -1.261416 0.378032 -3.548981 -1.363264 1.900016 -1.564097 -4.459767 1.989856 -20.606730 1.844416 59.240719 -38.997829 -44.005916 7.127797 4.090042 -23.531675 -12.659158 2.369567 -4.212351 -5.084595 -18.612052 2.349316 -56.711275 -42.125987 57.939157 1.246110 -11.374920 3.903410 -24.845654 -30.138332 1.380368 112.247868 89.056822 110.152256 1.386434 -26.733728 -2.994637 -0.049834 0.749327 -0.024658 -15.242771 -46.507393 2.270943 174.130209 73.428549 172.571233 1.068799 -23.442210 -0.642773 -0.664319 -2.655607 -0.292249
-31.904658 55.914239 37.728312 -168.261469 -29.542765 -9.089007 -4.699453 14.602864 5.164827 -2.553802 8.503642 1.943350 -3.197177 10.552716 2.349697 -2.568772 8.473768 1.931384 0.073962 20.842271 -1.264573 0.365366 -3.545051 -1.357036 1.873523 -1.551622 -4.455975 1.962770 -20.562300 1.867321 59.343162 -39.137781 -44.177776 7.209105 4.155930 -23.460645 -12.679986 2.453748 -4.220120 -5.083365 -18.646401 2.366782 -56.806604 -42.199401 58.071572 1.257338 -11.355016 3.890550 -24.854930 -30.167048 1.385865 112.821341 89.045810 110.723928 1.383288 -26.740591 -2.994250 -0.049575 0.746381 -0.023654 -15.235692 -46.538032 2.259150 174.123676 73.415898 172.570235 1.070037 -23.444398 -0.635696 -0.664156 -2.664140 -0.296515
-31.906967 55.910723 37.721464 -168.256922 -29.514880 -9.087004 -4.699072 14.595357 5.170908 -2.550211 8.508119 1.946412 -3.152115 10.638342 2.379601 -2.585038 8.435096 1.932669 0.066384 20.863889 -1.258120 0.327498 -3.606154 -1.354972 1.832192 -1.578426 -4.462103 1.939021 -20.518700 1.889054 59.437456 -39.245912 -44.333868 7.239982 4.188910 -23.386694 -12.715940 2.473966 -4.224113 -5.078604 -18.654307 2.372728 -56.908770 -42.264640 58.218506 1.269856 -11.338554 3.865355 -24.865904 -30.192724 1.391301 113.199781 89.036120 111.104159 1.376932 -26.750640 -2.995723 -0.048084 0.746963 -0.021992 -15.229756 -46.568068 2.246188 174.109292 73.402962 172.565159 1.072805 -23.448540 -0.633255 -0.666485 -2.670779 -0.297375
-31.909068 55.906603 37.715965 -168.258080 -29.477712 -9.080201 -4.670122 14.633627 5.192589 -2.567174 8.453992 1.940735 -3.155217 10.628586 2.379834 -2.553688 8.492883 1.946665 0.044939 20.862693 -1.250300 0.299211 -3.631615 -1.346347 1.785120 -1.489991 -4.434712 1.921229 -20.587470 1.877002 59.535756 -39.340183 -44.483177 7.213753 4.205869 -23.309415 -12.750222 2.497256 -4.223053 -5.077157 -18.660080 2.372394 -57.015225 -42.320574 58.377744 1.280577 -11.319528 3.844693 -24.874333 -30.230280 1.401650 113.579558 89.024075 111.485111 1.366544 -26.759602 -2.996453 -0.047243 0.748459 -0.020744 -15.214732 -46.604519 2.231156 174.113335 73.395343 172.582433 1.076027 -23.466908 -0.632127 -0.662574 -2.662518 -0.295590
-31.911925 55.904959 37.706624 -168.255919 -29.467564 -9.074295 -4.660356 14.659439 5.197829 -2.558467 8.463637 1.947077 -3.146815 10.638640 2.388206 -2.547158 8.500862 1.953368 0.023404 20.857041 -1.242135 0.274807 -3.633974 -1.333843 1.747091 -1.447953 -4.414874 1.898830 -20.602727 1.877390 59.638039 -39.432648 -44.632028 7.204246 4.228443 -23.242804 -12.776061 2.526046 -4.221762 -5.085774 -18.710358 2.377606 -57.075476 -42.350070 58.483243 1.289370 -11.307778 3.823319 -24.866409 -30.238393 1.397499 113.869881 89.010897 111.777471 1.353539 -26.771247 -2.994428 -0.039608 0.751664 -0.018273 -15.192921 -46.610223 2.209685 174.132339 73.388192 172.607752 1.078159 -23.484230 -0.622018 -0.659374 -2.659315 -0.296840
